<svg width="22" height="21" viewBox="0 0 22 21" fill="none" xmlns="http://www.w3.org/2000/svg">
<path fill-rule="evenodd" clip-rule="evenodd" d="M21.8751 10.9377C21.8751 9.74298 21.9008 7.8956 21.9289 6.00022C21.978 2.68667 19.3134 0.000163861 15.9995 0.000199078C14.2228 0.000217959 12.4156 0.000219345 10.9376 0.000219345C9.6018 0.000219345 7.8235 0.000219345 6.00005 0.000219345C2.68638 0.000219345 -8.3135e-06 2.68651 3.38375e-05 6.00017C5.64166e-05 7.77521 8.19844e-05 9.52812 8.19844e-05 10.9377C8.19844e-05 12.0625 7.15326e-05 13.5196 5.8018e-05 14.9999C2.7765e-05 18.3136 2.68642 21 6.00015 21C7.15209 21 8.20278 21 9.2286 21V14.1003H6.45077V10.9377H9.2286V8.52805C9.2286 5.78733 10.8619 4.27219 13.3599 4.27219C14.5567 4.27219 15.8087 4.48606 15.8087 4.48606V7.17795H14.4288C13.0709 7.17795 12.6461 8.02073 12.6461 8.88694V10.9377H15.6793L15.1949 14.1003H12.6466V21C13.6864 21 14.8287 21 15.9999 21C19.3136 21 21.9801 18.3135 21.9234 15.0002C21.8975 13.4883 21.8751 12.0551 21.8751 10.9377Z" fill="black"/>
</svg>
