<svg width="48" height="60" viewBox="0 0 48 60" fill="none" xmlns="http://www.w3.org/2000/svg">
<path d="M35.9489 11.5348V29.1399L15.3586 5.32643C14.171 3.95908 12.0239 1.83786 10.7969 0.32271H5.58251C2.15939 0.32271 1.28827 0.32271 0.98154 0.32271V44.5556H10.1835L10.4902 14.5658L35.9489 44.5652C35.9489 44.5652 42.9614 44.5556 44.8441 44.5556L45.7643 44.5652C45.7643 44.5652 45.7643 43.9591 45.7643 40.3227V11.5348H35.9489Z" fill="#0B2235"/>
<path d="M36.7584 0L46.5404 0.799769L45.7308 10.4637L35.9489 9.66394L36.7584 0Z" fill="#FD460E"/>
<path d="M2.04897 53.5151C2.04897 52.9454 2.36797 52.6545 2.9937 52.6545H10.2448V51.1394H2.18393C0.736155 51.1394 0 51.7818 0 53.0545V58.0848C0 59.3576 0.736155 60 2.18393 60H10.2448V58.4848H2.9937C2.36797 58.4848 2.04897 58.2061 2.04897 57.6242V53.5151Z" fill="#0B2235"/>
<path d="M19.4982 52.6545C20.1976 52.6545 20.5411 52.9697 20.5411 53.6242V57.5151C20.5411 58.1697 20.1976 58.4848 19.4982 58.4848H14.75C14.0507 58.4848 13.7072 58.1576 13.7072 57.5151V53.6242C13.7072 52.9697 14.0507 52.6545 14.75 52.6545H19.4982ZM20.173 60C21.7926 60 22.5901 59.2848 22.5901 57.8424V53.297C22.5901 51.8545 21.7926 51.1394 20.173 51.1394H14.0752C12.4557 51.1394 11.6582 51.8545 11.6582 53.297V57.8424C11.6582 59.2848 12.4557 60 14.0752 60H20.173Z" fill="#0B2235"/>
<path d="M33.2917 57.5151C33.2917 58.1697 32.9481 58.4848 32.261 58.4848H26.4454V52.6545H32.261C32.9481 52.6545 33.2917 52.9697 33.2917 53.6242V57.5151ZM24.3964 60H32.9358C34.5554 60 35.3529 59.2848 35.3529 57.8424V53.297C35.3529 51.8545 34.5554 51.1394 32.9358 51.1394H24.3964V60Z" fill="#0B2235"/>
<path d="M39.1939 52.6545H47.5248V51.1394H37.145V60H47.5248V58.4848H39.1939V55.6121H45.7825V54.3273H39.1939V52.6545Z" fill="#0B2235"/>
</svg>
