<svg width="80" height="101" viewBox="0 0 80 101" fill="none" xmlns="http://www.w3.org/2000/svg">
<path d="M60.514 19.417V49.0522L25.8537 8.96616C23.8545 6.66445 20.2402 3.09374 18.1749 0.543228H9.39722C3.63497 0.543228 2.16859 0.543228 1.65226 0.543228V75.0019H17.1422L17.6585 24.5192L60.514 75.018C60.514 75.018 72.3183 75.0019 75.4876 75.0019L77.0366 75.018C77.0366 75.018 77.0366 73.9978 77.0366 67.8766V19.417H60.514Z" fill="#0B2235"/>
<path d="M61.8767 0L78.343 1.34628L76.9802 17.6139L60.514 16.2676L61.8767 0Z" fill="#FD460E"/>
<path d="M3.44909 90.0838C3.44909 89.1248 3.98608 88.6351 5.03939 88.6351H17.2455V86.0846H3.67628C1.23919 86.0846 0 87.166 0 89.3085V97.7762C0 99.9186 1.23919 101 3.67628 101H17.2455V98.4495H5.03939C3.98608 98.4495 3.44909 97.9802 3.44909 97.0008V90.0838Z" fill="#0B2235"/>
<path d="M32.822 88.6351C33.9993 88.6351 34.5776 89.1656 34.5776 90.2675V96.8172C34.5776 97.919 33.9993 98.4495 32.822 98.4495H24.8292C23.652 98.4495 23.0737 97.8986 23.0737 96.8172V90.2675C23.0737 89.1656 23.652 88.6351 24.8292 88.6351H32.822ZM33.958 101C36.6842 101 38.0266 99.7962 38.0266 97.3681V89.7166C38.0266 87.2885 36.6842 86.0846 33.958 86.0846H23.6933C20.9671 86.0846 19.6246 87.2885 19.6246 89.7166V97.3681C19.6246 99.7962 20.9671 101 23.6933 101H33.958Z" fill="#0B2235"/>
<path d="M56.041 96.8172C56.041 97.919 55.4627 98.4495 54.3061 98.4495H44.5164V88.6351H54.3061C55.4627 88.6351 56.041 89.1656 56.041 90.2675V96.8172ZM41.0673 101H55.442C58.1682 101 59.5107 99.7962 59.5107 97.3681V89.7166C59.5107 87.2885 58.1682 86.0846 55.442 86.0846H41.0673V101Z" fill="#0B2235"/>
<path d="M65.9764 88.6351H80V86.0846H62.5274V101H80V98.4495H65.9764V93.6137H77.0672V91.4509H65.9764V88.6351Z" fill="#0B2235"/>
</svg>
