<svg width="7" height="8" viewBox="0 0 7 8" fill="none" xmlns="http://www.w3.org/2000/svg">
<path d="M3.49986 7.99175C1.56695 7.98736 8.17247e-05 6.41686 0.000162668 4.48394C0.000243611 2.55103 1.56724 0.987651 3.50015 0.992045C5.43307 0.996438 6.99993 2.56694 6.99985 4.49985C6.99977 6.43277 5.43277 7.99614 3.49986 7.99175Z" fill="#297ABF" fill-opacity="0.7"/>
<path d="M3.49976 7.29225C1.95343 7.28874 0.699932 6.03234 0.699997 4.48601C0.700061 2.93968 1.95366 1.68897 3.49999 1.69249C5.04632 1.696 6.29981 2.9524 6.29975 4.49874C6.29968 6.04507 5.04608 7.29577 3.49976 7.29225Z" fill="#297ABF" fill-opacity="0.7"/>
<ellipse cx="1.74993" cy="1.74993" rx="1.74993" ry="1.74993" transform="matrix(-4.17507e-05 1 -0.999997 -0.00227291 5.24982 2.74597)" fill="#0B2235"/>
</svg>
