<svg width="10" height="11" viewBox="0 0 10 11" fill="none" xmlns="http://www.w3.org/2000/svg">
<path d="M5.00001 10.9888C2.2386 10.9827 2.53916e-05 8.73912 2.53916e-05 5.97769C2.53916e-05 3.21627 2.2386 0.982685 5.00001 0.988846C7.76143 0.995006 10 3.23858 10 6C10 8.76142 7.76143 10.995 5.00001 10.9888Z" fill="#297ABF" fill-opacity="0.7"/>
<path d="M5.00016 9.98864C2.79103 9.98371 1.00017 8.18885 1.00017 5.97971C1.00017 3.77057 2.79103 1.98371 5.00016 1.98864C7.2093 1.99356 9.00015 3.78842 9.00015 5.99756C9.00015 8.2067 7.2093 9.99356 5.00016 9.98864Z" fill="#297ABF" fill-opacity="0.7"/>
<ellipse cx="2.5" cy="2.5" rx="2.5" ry="2.5" transform="matrix(5.72258e-10 1 -0.999998 -0.00223088 7.50012 3.49451)" fill="#0B2235"/>
</svg>
