<svg width="14" height="15" viewBox="0 0 14 15" fill="none" xmlns="http://www.w3.org/2000/svg">
<path d="M7.00002 14.9844C3.13403 14.9758 3.61204e-05 11.8348 3.61204e-05 7.96877C3.61204e-05 4.10278 3.13403 0.97576 7.00002 0.984384C10.866 0.993009 14 4.13401 14 8C14 11.866 10.866 14.993 7.00002 14.9844Z" fill="#297ABF" fill-opacity="0.7"/>
<path d="M7.00011 13.5845C3.90733 13.5776 1.40013 11.0648 1.40013 7.97199C1.40013 4.87919 3.90733 2.37758 7.00011 2.38448C10.0929 2.39138 12.6001 4.90418 12.6001 7.99697C12.6001 11.0898 10.0929 13.5914 7.00011 13.5845Z" fill="#297ABF" fill-opacity="0.7"/>
<ellipse cx="3.5" cy="3.5" rx="3.5" ry="3.5" transform="matrix(0 1 -0.999998 -0.00223082 10.5001 4.49219)" fill="#0B2235"/>
</svg>
