<svg width="13" height="14" viewBox="0 0 13 14" fill="none" xmlns="http://www.w3.org/2000/svg">
<path d="M6.50002 13.9855C2.91018 13.9775 3.5584e-05 11.0609 3.5584e-05 7.471C3.5584e-05 3.88115 2.91018 0.977491 6.50002 0.9855C10.0899 0.993508 13 3.91015 13 7.5C13 11.0899 10.0899 13.9935 6.50002 13.9855Z" fill="#297ABF" fill-opacity="0.7"/>
<path d="M6.50009 12.6855C3.62821 12.6791 1.3001 10.3458 1.3001 7.47392C1.3001 4.60204 3.62821 2.27911 6.50009 2.28552C9.37196 2.29193 11.7001 4.62524 11.7001 7.49712C11.7001 10.369 9.37196 12.6919 6.50009 12.6855Z" fill="#297ABF" fill-opacity="0.7"/>
<ellipse cx="3.25" cy="3.25" rx="3.25" ry="3.25" transform="matrix(0 1 -0.999998 -0.00223082 9.75 4.24304)" fill="#0B2235"/>
</svg>
