<svg width="141" height="14" viewBox="0 0 141 14" fill="none" xmlns="http://www.w3.org/2000/svg">
<path d="M11.4699 4.29491V3.10991C11.4699 2.29991 11.0499 1.90991 10.1949 1.90991H3.14489V5.49491H10.1949C11.0499 5.49491 11.4699 5.10491 11.4699 4.29491ZM0.639893 10.9999V0.0349121H10.9899C12.9699 0.0349121 13.9449 0.919911 13.9449 2.70491V4.63991C13.9449 6.42491 12.9699 7.30991 10.9899 7.30991H3.14489V10.9999H0.639893Z" fill="white"/>
<path d="M18.3646 1.90991V3.97991H26.4196V5.56991H18.3646V9.12491H28.5496V10.9999H15.8596V0.0349121H28.5496V1.90991H18.3646Z" fill="white"/>
<path d="M32.7316 2.97491V3.97991H40.2166V5.56991H32.7316V8.05991C32.7316 8.77991 33.1216 9.12491 33.8866 9.12491H42.7966V10.9999H32.9416C31.1716 10.9999 30.2716 10.2049 30.2716 8.62991V2.40491C30.2716 0.829912 31.1716 0.0349121 32.9416 0.0349121H42.7966V1.90991H33.8866C33.1216 1.90991 32.7316 2.26991 32.7316 2.97491Z" fill="white"/>
<path d="M47.0295 2.97491V8.05991C47.0295 8.77991 47.4195 9.12491 48.1845 9.12491H57.0495V10.9999H47.1945C45.4245 10.9999 44.5245 10.2049 44.5245 8.62991V2.40491C44.5245 0.829912 45.4245 0.0349121 47.1945 0.0349121H57.0495V1.90991H48.1845C47.4195 1.90991 47.0295 2.26991 47.0295 2.97491Z" fill="white"/>
<path d="M66.5729 10.9999H64.0529V1.90991H58.4429V0.0349121H72.1979V1.90991H66.5729V10.9999Z" fill="white"/>
<path d="M84.7121 4.29491V3.10991C84.7121 2.29991 84.2921 1.90991 83.4371 1.90991H76.3871V5.49491H83.4371C84.2921 5.49491 84.7121 5.10491 84.7121 4.29491ZM73.8821 10.9999V0.0349121H84.2321C86.2121 0.0349121 87.1871 0.919911 87.1871 2.70491V4.63991C87.1871 6.42491 86.2121 7.30991 84.2321 7.30991H76.3871V10.9999H73.8821Z" fill="white"/>
<path d="M91.7268 0.0349121H99.8118C101.582 0.0349121 102.482 0.829912 102.482 2.40491V10.9999H99.9768V7.29491H91.5768V10.9999H89.0718V2.40491C89.0718 0.829912 89.9568 0.0349121 91.7268 0.0349121ZM91.5768 2.97491V5.70491H99.9768V2.97491C99.9768 2.26991 99.5868 1.90991 98.8218 1.90991H92.7168C91.9668 1.90991 91.5768 2.26991 91.5768 2.97491Z" fill="white"/>
<path d="M104.717 10.9999V0.0349121H107.222V9.12491H116.012V0.0349121H118.517V9.12491H120.617V13.7899H119.057V10.9999H104.717Z" fill="white"/>
<path d="M124.786 0.0349121V10.9999H122.281V0.0349121H124.786Z" fill="white"/>
<path d="M140.106 0.0349121V10.9999H137.586V6.84491H132.321L129.021 10.9999H126.246V10.8949L129.486 6.84491C127.686 6.75491 126.801 5.68991 126.801 4.09991V2.70491C126.801 0.919911 127.776 0.0349121 129.741 0.0349121H140.106ZM129.276 3.07991V3.94991C129.276 4.63991 129.696 5.23991 130.536 5.23991H137.586V1.86491H130.536C129.696 1.86491 129.276 2.26991 129.276 3.07991Z" fill="white"/>
</svg>
