<svg width="21" height="21" viewBox="0 0 21 21" fill="none" xmlns="http://www.w3.org/2000/svg">
<path d="M10.5001 -0.000311494C8.42335 -0.000311494 8.4806 -0.000173129 6 -0.000225283C2.68654 0.000583579 0.000109323 2.68613 0.000109475 5.99959C0.0001096 8.72236 0.000105837 11.5159 0.000218958 12.6018C0.000210833 13.2559 0.00021648 14.0948 0.000225864 14.9991C0.000260252 18.313 2.68731 21 6.00115 21C6.97223 21 7.85179 21 8.50005 21C10.5001 21 12.8348 21 14.9174 21C14.945 21 14.9726 21 15.0001 21C18.3138 21 21.0001 18.3134 21.0001 14.9997C21.0001 13.16 21.0001 11.4266 21.0001 10.4997C21.0001 9.12081 21.0001 7.99983 21.0001 6.48151C21.0001 6.33739 21.0001 6.17574 21.0001 5.99991C21.0001 2.68637 18.3136 0.000457692 15.0001 -0.000281453C13.8391 -0.000540435 11.8789 -0.000311494 10.5001 -0.000311494ZM13.8391 15.9093C13.7999 16.0074 13.7401 16.096 13.6639 16.1691C13.5876 16.2421 13.4966 16.2981 13.397 16.3331C13.2973 16.3681 13.1913 16.3814 13.0861 16.372C12.9809 16.3627 12.8789 16.3309 12.787 16.2789L9.9362 14.0634L8.10711 15.7518C8.06465 15.7831 8.015 15.8033 7.96271 15.8105C7.91042 15.8176 7.85717 15.8115 7.80785 15.7927L8.15856 12.6543L8.16905 12.6637L8.1764 12.6018C8.1764 12.6018 13.3057 7.93139 13.5146 7.73294C13.7267 7.53449 13.6564 7.49144 13.6564 7.49144C13.669 7.24994 13.2773 7.49144 13.2773 7.49144L6.48066 11.8636L3.65091 10.8997C3.65091 10.8997 3.21621 10.7443 3.17526 10.401C3.13221 10.0608 3.66456 9.87599 3.66456 9.87599L14.9174 5.40509C14.9174 5.40509 15.8425 4.99349 15.8425 5.67599L13.8391 15.9093Z" fill="black"/>
</svg>
